<?xml version="1.0" encoding="UTF-8" standalone="no"?><svg xmlns="http://www.w3.org/2000/svg" xmlns:xlink="http://www.w3.org/1999/xlink" contentScriptType="application/ecmascript" contentStyleType="text/css" height="370px" preserveAspectRatio="none" style="width:452px;height:370px;" version="1.1" viewBox="0 0 452 370" width="452px" zoomAndPan="magnify"><defs><filter height="300%" id="fniyjftbsdvw7" width="300%" x="-1" y="-1"><feGaussianBlur result="blurOut" stdDeviation="2.0"/><feColorMatrix in="blurOut" result="blurOut2" type="matrix" values="0 0 0 0 0 0 0 0 0 0 0 0 0 0 0 0 0 0 .4 0"/><feOffset dx="4.0" dy="4.0" in="blurOut2" result="blurOut3"/><feBlend in="SourceGraphic" in2="blurOut3" mode="normal"/></filter></defs><g><!--cluster Song editor--><polygon fill="#FFFFFF" filter="url(#fniyjftbsdvw7)" points="36,34,46,24,397,24,397,107,387,117,36,117,36,34" style="stroke: #000000; stroke-width: 1.5;"/><line style="stroke: #000000; stroke-width: 1.5;" x1="387" x2="396" y1="34" y2="25"/><line style="stroke: #000000; stroke-width: 1.5;" x1="36" x2="387" y1="34" y2="34"/><line style="stroke: #000000; stroke-width: 1.5;" x1="387" x2="387" y1="34" y2="117"/><text fill="#000000" font-family="sans-serif" font-size="14" font-weight="bold" lengthAdjust="spacingAndGlyphs" textLength="83" x="171" y="50.5352">Song editor</text><!--cluster Synth / sequencer--><polygon fill="#FFFFFF" filter="url(#fniyjftbsdvw7)" points="22,177,32,167,430,167,430,250,420,260,22,260,22,177" style="stroke: #000000; stroke-width: 1.5;"/><line style="stroke: #000000; stroke-width: 1.5;" x1="420" x2="429" y1="177" y2="168"/><line style="stroke: #000000; stroke-width: 1.5;" x1="22" x2="420" y1="177" y2="177"/><line style="stroke: #000000; stroke-width: 1.5;" x1="420" x2="420" y1="177" y2="260"/><text fill="#000000" font-family="sans-serif" font-size="14" font-weight="bold" lengthAdjust="spacingAndGlyphs" textLength="130" x="157" y="193.5352">Synth / sequencer</text><!--entity songsource--><rect fill="#FEFECE" filter="url(#fniyjftbsdvw7)" height="36.4883" style="stroke: #A80036; stroke-width: 1.5;" width="174" x="52" y="65"/><rect fill="#FEFECE" height="5" style="stroke: #A80036; stroke-width: 1.5;" width="10" x="47" y="70"/><rect fill="#FEFECE" height="5" style="stroke: #A80036; stroke-width: 1.5;" width="10" x="47" y="91.4883"/><text fill="#000000" font-family="sans-serif" font-size="14" lengthAdjust="spacingAndGlyphs" textLength="154" x="62" y="88.5352">Song Javascript source</text><!--entity songcompiler--><rect fill="#FEFECE" filter="url(#fniyjftbsdvw7)" height="36.4883" style="stroke: #A80036; stroke-width: 1.5;" width="119" x="261.75" y="65"/><rect fill="#FEFECE" height="5" style="stroke: #A80036; stroke-width: 1.5;" width="10" x="256.75" y="70"/><rect fill="#FEFECE" height="5" style="stroke: #A80036; stroke-width: 1.5;" width="10" x="256.75" y="91.4883"/><text fill="#000000" font-family="sans-serif" font-size="14" lengthAdjust="spacingAndGlyphs" textLength="99" x="271.75" y="88.5352">Song compiler</text><!--entity audioworkletprocessor--><rect fill="#FEFECE" filter="url(#fniyjftbsdvw7)" height="36.4883" style="stroke: #A80036; stroke-width: 1.5;" width="185" x="228.75" y="208"/><rect fill="#FEFECE" height="5" style="stroke: #A80036; stroke-width: 1.5;" width="10" x="223.75" y="213"/><rect fill="#FEFECE" height="5" style="stroke: #A80036; stroke-width: 1.5;" width="10" x="223.75" y="234.4883"/><text fill="#000000" font-family="sans-serif" font-size="14" lengthAdjust="spacingAndGlyphs" textLength="165" x="238.75" y="231.5352">AudioWorklet processor</text><!--entity wasmsynth--><rect fill="#FEFECE" filter="url(#fniyjftbsdvw7)" height="36.4883" style="stroke: #A80036; stroke-width: 1.5;" width="155" x="38.75" y="208"/><rect fill="#FEFECE" height="5" style="stroke: #A80036; stroke-width: 1.5;" width="10" x="33.75" y="213"/><rect fill="#FEFECE" height="5" style="stroke: #A80036; stroke-width: 1.5;" width="10" x="33.75" y="234.4883"/><text fill="#000000" font-family="sans-serif" font-size="14" lengthAdjust="spacingAndGlyphs" textLength="135" x="48.75" y="231.5352">WebAssembly synth</text><!--entity audiooutput--><path d="M270.7497,318.0482 C273.523,311.5951 279.5256,312.1903 283.1957,317.0627 C285.9241,310.2466 291.8946,309.4637 296.5124,315.0308 C300.1705,309.3726 304.4006,308.8533 309.1062,313.785 C313.4347,308.02 318.8843,307.2634 323.2167,313.7805 C327.8377,308.1921 331.7438,309.2937 334.6638,315.4399 C339.0761,307.6682 343.551,307.7445 348.7831,314.6513 C353.8968,309.3849 357.9888,309.9677 361.1612,316.6606 C366.068,310.6788 371.6255,311.6613 375.4369,317.9364 C384.2063,320.3874 385.106,325.758 379.3289,332.1829 C385.4969,338.4363 384.1978,345.5527 374.9785,347.4101 C370.8394,354.4542 366.5541,353.9245 361.8206,348.0138 C359.1788,355.798 354.551,355.7816 349.1849,350.6867 C346.082,357.6666 339.6117,357.3879 336.0962,351.0935 C333.2163,357.5872 326.6009,358.9898 321.7988,353.3606 C316.1446,357.6989 311.7376,357.9717 309.1018,350.1968 C305.54,355.7617 299.6304,354.9191 296.8766,349.3126 C292.9135,355.0061 286.212,354.2851 283.1183,348.2894 C278.5523,354.115 273.2404,354.7844 269.2158,347.7061 C259.6737,346.4254 258.2912,338.6963 263.8842,332.2086 C258.3077,324.9414 261.2219,317.9923 270.7497,318.0482 " fill="#FFFFFF" style="stroke: #000000; stroke-width: 1.5;"/><text fill="#000000" font-family="sans-serif" font-size="14" lengthAdjust="spacingAndGlyphs" textLength="91" x="275.75" y="336.5352">Audio output</text><!--link songsource to songcompiler--><path d="M226.09,83 C236.285,83 246.481,83 256.676,83 " fill="none" id="songsource-&gt;songcompiler" style="stroke: #A80036; stroke-width: 1.0;"/><polygon fill="#A80036" points="261.681,83,252.681,79,256.681,83,252.681,87,261.681,83" style="stroke: #A80036; stroke-width: 1.0;"/><!--link songcompiler to audioworkletprocessor--><path d="M321,101.008 C321,126.521 321,174.707 321,202.908 " fill="none" id="songcompiler-&gt;audioworkletprocessor" style="stroke: #A80036; stroke-width: 1.0;"/><polygon fill="#A80036" points="321,207.932,325,198.932,321,202.932,317,198.932,321,207.932" style="stroke: #A80036; stroke-width: 1.0;"/><text fill="#000000" font-family="sans-serif" font-size="13" lengthAdjust="spacingAndGlyphs" textLength="75" x="322" y="146.5684">Pattern data</text><!--link audioworkletprocessor to wasmsynth--><path d="M228.699,239.366 C218.644,239.63 208.589,239.504 198.534,238.988 " fill="none" id="audioworkletprocessor-&gt;wasmsynth" style="stroke: #A80036; stroke-width: 1.0;"/><polygon fill="#A80036" points="193.275,238.682,202.0291,243.1948,198.2667,238.9706,202.4909,235.2081,193.275,238.682" style="stroke: #A80036; stroke-width: 1.0;"/><!--link wasmsynth to audioworkletprocessor--><path d="M193.275,213.318 C203.331,212.666 213.386,212.404 223.441,212.531 " fill="none" id="wasmsynth-&gt;audioworkletprocessor" style="stroke: #A80036; stroke-width: 1.0;"/><polygon fill="#A80036" points="228.699,212.634,219.7784,208.4599,223.6999,212.5368,219.623,216.4584,228.699,212.634" style="stroke: #A80036; stroke-width: 1.0;"/><!--link audioworkletprocessor to audiooutput--><path d="M321,244.008 C321,259.9902 321,284.1736 321,302.8281 " fill="none" id="audioworkletprocessor-&gt;audiooutput" style="stroke: #A80036; stroke-width: 1.0;"/><polygon fill="#A80036" points="321,307.9316,325,298.9316,321,302.9316,317,298.9316,321,307.9316" style="stroke: #A80036; stroke-width: 1.0;"/><!--
@startuml

node "Song editor" {
    [Song Javascript source] as songsource
    [Song compiler] as songcompiler
}
node "Synth / sequencer" {
    [AudioWorklet processor] as audioworkletprocessor  
    [WebAssembly synth] as wasmsynth  
}

cloud "Audio output" as audiooutput {

}

songsource -> songcompiler
songcompiler -down-> audioworkletprocessor : "Pattern data"
audioworkletprocessor -> wasmsynth
wasmsynth -> audioworkletprocessor

audioworkletprocessor -down-> audiooutput

@enduml

PlantUML version 1.2019.09(Mon Aug 26 18:19:51 CEST 2019)
(GPL source distribution)
Java Runtime: Java(TM) SE Runtime Environment
JVM: Java HotSpot(TM) 64-Bit Server VM
Java Version: 1.8.0_91-b14
Operating System: Mac OS X
OS Version: 10.14.6
Default Encoding: UTF-8
Language: nb
Country: NO
--></g></svg>